<svg width="624" height="157"><defs id="SvgjsDefs1011"></defs><g id="SvgjsG1012" featurekey="root" fill="#ffffff"></g><g id="SvgjsG1013" featurekey="container1" fill="#4464d2" transform="matrix(0.7256960168562638,0,0,0.7256960168562638,20.0002595291198,20.00012517954545)"><defs xmlns="http://www.w3.org/2000/svg"></defs><g xmlns="http://www.w3.org/2000/svg">  <path d="M17.914,148.907c-0.664-0.914-1.313-1.837-1.944-2.774C16.596,147.066,17.249,147.989,17.914,148.907z"></path>  <path d="M22.657,154.94c1.844,2.153,3.788,4.249,5.861,6.251c6.914,6.805,15.159,12.525,24.004,16.851    c3.259,1.526,6.265,3.107,9.787,4.468c0.88,0.338,1.779,0.7,2.724,1.026c0.953,0.302,1.941,0.604,2.974,0.903    c1.027,0.321,2.122,0.549,3.267,0.786c1.146,0.23,2.336,0.493,3.614,0.624c-6.3-1.328-12.498-3.333-18.434-5.99    c-5.93-2.671-11.597-5.979-16.873-9.842c-10.548-7.727-19.57-17.648-26.16-28.989c-0.272-0.339-0.685-0.985-1.18-1.808    c-0.244-0.413-0.512-0.868-0.796-1.348c-0.256-0.496-0.527-1.018-0.803-1.551c-0.534-1.076-1.149-2.168-1.62-3.226    c-0.486-1.05-0.943-2.011-1.326-2.748c2.048,5.101,4.412,9.563,7.059,13.806c1.215,1.936,2.495,3.828,3.869,5.697    c-0.192-0.259-0.392-0.511-0.583-0.771c1.446,1.986,2.974,3.94,4.6,5.841C22.646,154.925,22.651,154.933,22.657,154.94z"></path>  <path d="M18.039,149.078c-0.042-0.057-0.084-0.114-0.125-0.17C17.956,148.964,17.998,149.021,18.039,149.078z"></path>  <path d="M1.335,106.042c-0.159-1.277-0.32-2.567-0.483-3.875c0.256,2.365,0.553,5.008,1.096,7.654    c-0.109-0.624-0.217-1.251-0.327-1.879C1.503,107.315,1.403,106.682,1.335,106.042z"></path>  <path d="M85.812,185.575c6.652,0.673,13.628,0.472,20.461-0.609c6.837-1.077,13.524-2.987,19.741-5.449    c-11.45,4.503-23.602,6.506-35.49,6.171C88.933,185.663,87.365,185.688,85.812,185.575z"></path>  <path d="M46.426,171.967c-0.086-0.055-0.173-0.11-0.259-0.165C46.254,171.857,46.339,171.913,46.426,171.967z"></path>  <path d="M46.167,171.802c-0.853-0.542-1.688-1.1-2.514-1.667C44.475,170.705,45.317,171.257,46.167,171.802z"></path>  <path d="M43.653,170.135c-0.899-0.623-1.797-1.248-2.66-1.897C41.861,168.886,42.752,169.516,43.653,170.135z"></path>  <path d="M56.077,177.284c5.439,2.533,11.23,4.506,17.123,5.816c-9.688-2.21-18.805-6.109-26.774-11.133    C49.486,173.914,52.703,175.716,56.077,177.284z"></path>  <path d="M177.002,107.094c0.098-1.58,0.296-3.238,0.346-4.027c0.594-5.071,0.77-9.401,0.745-13.745    c-0.11-0.783-0.425-2.25-0.55-3.918c-0.153-1.672-0.378-3.309-0.568-4.924c-0.289-1.601-0.538-3.186-0.854-4.74    c2.275,11.617,2.237,23.279,0.144,34.282C176.51,108.986,176.756,108.003,177.002,107.094z"></path>  <path d="M0.887,83.482c0.848-6.9,2.653-13.626,4.37-18.107l-0.695,3.28c0.429-0.961,1.122-3.194,2.067-5.557    c0.225-0.594,0.454-1.2,0.682-1.802c0.255-0.591,0.508-1.179,0.753-1.747c0.5-1.131,0.92-2.203,1.363-3.025    c-0.303,0.771-0.595,1.602-0.947,2.436c-0.345,0.837-0.732,1.687-1.101,2.542c0.755-1.702,0.755-1.702,1.514-3.409    C7.581,61.359,6.148,65.463,4.954,69.8c-1.133,4.352-2.029,8.926-2.511,13.032c-0.14,1.024-0.189,2.024-0.28,2.978    c-0.067,0.954-0.183,1.864-0.192,2.724c-0.042,1.719-0.1,3.224-0.071,4.428c0.105,2.409,0.25,3.61,0.459,2.939    c0.411-1.333,0.403-8.188,1.837-16.767c0.767-4.276,1.868-8.966,3.362-13.561c1.483-4.599,3.427-9.058,5.44-12.992    c-0.197,0.429-0.394,0.859-0.592,1.292c-0.181,0.442-0.362,0.885-0.545,1.331c-0.369,0.889-0.741,1.787-1.116,2.691    c-0.339,0.92-0.68,1.846-1.024,2.78c-0.173,0.466-0.347,0.933-0.521,1.402c-0.153,0.476-0.308,0.954-0.461,1.434    c-1.32,3.807-2.307,7.816-3.167,11.857L5.013,78.42c-0.205,1.014-0.292,2.046-0.444,3.067c-0.318,2.041-0.434,4.097-0.611,6.129    c-0.199,4.074-0.239,8.098,0.13,11.946c-0.015-0.914-0.03-1.726-0.017-2.512c0.038-0.785,0.075-1.545,0.115-2.355    c0.048-0.809,0.039-1.667,0.115-2.65c0.07-0.983,0.134-2.091,0.19-3.402c0.391-6.608,1.572-13.15,3.408-19.481    c1.75-6.358,3.814-11.957,6.889-17.03c0.269-0.513,0.536-1.021,0.801-1.526c0.542-1.024,0.993-2.034,1.566-3.064    c0.653-1.13,1.278-1.976,1.784-2.751c0.521-0.767,0.963-1.441,1.469-2.095c0.969-1.336,1.977-2.729,3.682-5.082    c0.075-0.009-0.022,0.185-0.2,0.473c0.506-0.725,1.194-1.622,1.959-2.49c0.755-0.875,1.488-1.803,2.109-2.569    c0.146-0.007,0.288-0.011,0.623-0.251c8.65-9.197,19.295-16.692,31.291-21.417c0.892-0.347,1.781-0.694,2.667-1.039    c0.902-0.3,1.802-0.6,2.7-0.899l1.343-0.448l1.36-0.38c0.906-0.252,1.809-0.502,2.71-0.753c1.55-0.373,3.12-0.751,4.721-1.091    c0.806-0.141,1.619-0.283,2.437-0.426c0.819-0.141,1.642-0.3,2.484-0.378c1.674-0.201,3.134-0.625,3.921-0.729    c4.369-0.249,8.73-0.199,13.849,0.216c0.397,0.007,1.015,0.043,1.732,0.082c0.717,0.041,1.537,0.061,2.332,0.134    c0.932,0.21,1.927,0.418,2.971,0.621c6.369,0.988,12.527,2.754,18.386,5.103l-0.007-0.028c0.73,0.291,1.479,0.589,2.244,0.894    c0.748,0.346,1.513,0.699,2.29,1.058c1.571,0.684,3.11,1.559,4.7,2.383c0.798,0.407,1.554,0.904,2.338,1.354    c0.77,0.474,1.576,0.894,2.32,1.412c1.508,1.002,3.037,1.961,4.446,3.032c2.402,1.723,4.619,3.507,6.6,5.198    c0.046,0.042,0.094,0.081,0.14,0.122c0.018,0.016,0.028,0.025,0.042,0.038l1.457,1.322l1.394,1.391l1.395,1.392    c0.462,0.467,0.89,0.967,1.337,1.449c-0.216-0.35-0.208-0.491-0.2-0.63c-0.689-0.66-1.504-1.441-2.309-2.21    c1.343,1.222,2.515,2.327,3.477,3.229c0.371,0.474,0.776,0.94,1.16,1.449c0.385,0.508,0.78,1.031,1.186,1.566    c0.41,0.53,0.831,1.074,1.261,1.629c0.409,0.572,0.828,1.156,1.255,1.752c2.226,2.838,4.191,5.874,6.057,8.97    c0.864,1.588,1.817,3.131,2.586,4.774l1.213,2.436l1.092,2.497c0.314,0.533,0.192,0.022,0.231-0.068    c1.225,2.962,2.21,6.042,3.102,9.146c1.692,5.556,2.839,11.323,3.408,17.211c0.225,1.378,0.321,2.772,0.52,4.153    c-0.033,0.787-0.075,1.773-0.123,2.924c-0.001,1.103,0.057,2.206,0.01,3.311c-0.042,1.104-0.085,2.212-0.128,3.326    c-0.016,0.75-0.124,1.569-0.187,2.459c-0.084,0.888-0.128,1.846-0.256,2.856c-0.13,1.008-0.268,2.076-0.412,3.192    c-0.132,1.119-0.387,2.269-0.583,3.471c-0.883,4.79-2.297,10.17-4.312,15.482c-0.242,0.826-0.427,1.486-0.592,1.855    c-0.627,1.501-1.296,2.954-1.942,4.385c-0.723,1.394-1.386,2.788-2.127,4.108c-2.441,4.646-5.246,8.876-7.949,12.379    c-0.336,0.439-0.649,0.885-0.987,1.297c-0.34,0.41-0.673,0.812-0.998,1.206c-0.66,0.779-1.25,1.558-1.876,2.234    c-1.251,1.352-2.301,2.606-3.286,3.549c-1.128,1.178-1.027,1.233-0.246,0.665c0.388-0.287,0.957-0.719,1.608-1.262    c0.631-0.569,1.362-1.228,2.122-1.914c0.776-0.677,1.519-1.441,2.235-2.161c0.708-0.725,1.416-1.386,1.962-1.984    c1.101-1.191,1.824-1.926,1.67-1.599c-1.777,3.345-5.013,7.471-9.743,12.035c-2.413,2.227-5.128,4.647-8.339,6.98    c-1.566,1.221-3.307,2.338-5.082,3.558c-1.834,1.123-3.708,2.353-5.757,3.445c-4.484,2.442,3.365-1.475,3.577-1.512    c-0.605,0.472-1.406,1.062-2.377,1.64c-1.478,0.786-2.943,1.597-4.474,2.273c-0.895,0.411-1.774,0.855-2.679,1.239l-2.729,1.122    c0.483-0.19,0.958-0.376,1.444-0.568c2.952-1.173,5.711-2.555,8.202-3.922c-0.936,0.566-1.96,1.221-3.082,1.812    c-1.203,0.622-2.448,1.302-3.697,1.909c-1.26,0.586-2.494,1.16-3.625,1.686c12.968-4.711,24.885-12.507,34.319-22.67    c4.723-5.066,8.935-10.631,12.369-16.651c3.455-6.005,6.239-12.391,8.288-18.999c-3.154,9.93-8.071,19.052-13.981,26.765    c10.744-14.507,17.15-32.293,17.999-50.636c-0.001,1.011-0.101,2.018-0.168,3.025c-0.083,1.007-0.123,2.018-0.241,3.022    c-0.257,2.005-0.441,4.021-0.827,6.009c-0.624,4-1.636,7.931-2.782,11.815c2.262-7.021,3.613-14.424,4.145-21.869    c0.554-7.451,0.092-14.947-1.057-22.211c1.974,9.622,2.301,20.524,0.619,31.298c1.182-6.949,1.482-14.112,1.028-21.214    c-0.102-2.713-0.422-5.407-0.685-7.901c-0.377-2.476-0.662-4.762-1.027-6.611c1.445,6.826,2.015,12.648,2.293,18.136    c-0.267-11.977-2.748-24.112-7.62-35.511c2.659,6.191,4.842,12.851,6.175,19.698c1.34,6.84,1.897,13.838,1.58,20.57    c-0.015-0.788,0.018-1.575-0.028-2.366c-0.036-0.791-0.071-1.586-0.107-2.391c0.287,10.85-1.384,21.604-4.696,31.717    c-1.662,5.056-3.715,9.969-6.2,14.644c-2.484,4.674-5.349,9.131-8.56,13.316c3.673-4.29,7.551-10.354,10.646-17.015    c3.081-6.675,5.368-13.894,6.941-20.199c-2.314,11.322-6.907,22.494-13.571,32.471c-6.646,9.985-15.351,18.764-25.423,25.502    c-10.06,6.759-21.474,11.437-33.187,13.748c-5.856,1.161-11.779,1.764-17.657,1.809c-5.877,0.032-11.702-0.488-17.361-1.515    l3.005,0.571c1.002,0.19,2.018,0.295,3.026,0.445c2.016,0.324,4.055,0.446,6.087,0.633c4.073,0.229,8.168,0.306,12.25-0.005    c4.089-0.217,8.152-0.827,12.196-1.572c2.006-0.456,4.036-0.829,6.017-1.414c0.994-0.278,2-0.521,2.987-0.83l2.955-0.958    c-1.492,0.462-3.062,1.074-4.739,1.523c-0.692,0.203-1.396,0.41-2.101,0.618c4.45-1.195,8.735-2.677,12.91-4.496    c1.903-0.831,3.786-1.73,5.651-2.705c-3.472,1.838-7.05,3.472-10.714,4.872c-7.006,2.619-14.295,4.418-21.66,5.382    c-1.11,0.176-2.122,0.231-3.029,0.326c-0.908,0.09-1.714,0.169-2.428,0.24c-1.429,0.113-2.484,0.164-3.222,0.245    c-1.477,0.147-1.687,0.284-1.099,0.397c0.587,0.113,1.971,0.203,3.673,0.251c1.697-0.01,3.71-0.101,5.541-0.268    c18.397-1.887,35.288-9.107,48.824-19.916c13.545-10.811,23.919-25.172,29.701-41.467c0.363-0.946,0.642-1.922,0.944-2.89    c0.293-0.971,0.617-1.932,0.882-2.912c0.491-1.97,1.072-3.917,1.448-5.917l0.619-2.985l0.487-3.012l0.241-1.507l0.172-1.517    l0.342-3.034c0.698-8.114,0.422-16.315-0.812-24.363c-0.66-4.554-1.82-9.961-3.315-14.777c-0.395-1.197-0.781-2.365-1.15-3.484    c-0.4-1.107-0.825-2.151-1.203-3.133c-0.193-0.49-0.379-0.962-0.557-1.415c-0.2-0.444-0.39-0.869-0.571-1.271    c-0.37-0.801-0.7-1.516-0.981-2.124c-3.134-6.359-7.072-12.424-11.682-18.065c-4.605-5.643-9.896-10.868-15.861-15.418    c-0.747-0.566-1.494-1.134-2.244-1.703c-0.774-0.535-1.55-1.071-2.327-1.608l-1.166-0.806l-1.203-0.756    c-0.804-0.502-1.609-1.004-2.417-1.508c-3.295-1.904-6.67-3.739-10.228-5.261c-3.521-1.598-7.206-2.895-10.957-4.055    c-1.895-0.52-3.781-1.1-5.724-1.499c-0.968-0.209-1.928-0.463-2.907-0.638c-0.979-0.174-1.96-0.347-2.944-0.521    C100.363,0.01,93.04-0.285,85.724,0.265c-7.312,0.565-14.655,1.953-21.696,4.349l-2.635,0.913c-0.881,0.297-1.73,0.682-2.597,1.019    c-0.858,0.359-1.735,0.673-2.577,1.069l-2.532,1.173c-0.852,0.376-1.675,0.808-2.496,1.245l-2.469,1.297l-2.402,1.412    c-0.8,0.472-1.606,0.933-2.372,1.458l-2.324,1.528c-0.782,0.497-1.506,1.078-2.261,1.612c-0.741,0.554-1.51,1.07-2.226,1.654    l-2.157,1.737c-0.729,0.565-1.417,1.178-2.103,1.792l-2.063,1.83l-1.971,1.919c-0.656,0.639-1.319,1.271-1.93,1.951    c-5.031,5.298-9.451,11.078-13.066,17.194c-3.615,6.116-6.503,12.509-8.667,18.962c-4.375,12.92-5.63,26.023-5.046,37.858    C0.008,97.365-0.013,90.378,0.887,83.482z M142.019,173.928c3.038-1.966,5.968-4.097,8.765-6.389    C147.944,169.878,145.026,172.038,142.019,173.928z M182.236,119.646c-0.299,0.901-0.552,1.791-0.882,2.641    c-0.323,0.852-0.641,1.69-0.957,2.523l-0.466,1.248l-0.513,1.231c-0.339,0.823-0.672,1.653-0.997,2.501    c-1.848,4.606-4.058,9.082-6.587,13.35c-2.521,4.275-5.443,8.281-8.565,12.04c-1.542,1.899-3.222,3.66-4.874,5.421    c-0.863,0.844-1.724,1.686-2.581,2.523c-0.847,0.848-1.774,1.604-2.652,2.404c-0.736,0.64-1.478,1.266-2.225,1.882    c2.772-2.281,5.413-4.718,7.896-7.312c-3.789,3.921-7.616,7.205-11.689,10.188c-1.036,0.722-2.037,1.496-3.113,2.176    c-1.073,0.684-2.153,1.372-3.247,2.069c-1.127,0.641-2.269,1.289-3.43,1.949c-1.167,0.648-2.399,1.224-3.634,1.855    c0.718-0.431,1.658-0.952,2.685-1.508c1.021-0.567,2.092-1.237,3.138-1.85c1.054-0.601,2.012-1.261,2.808-1.813    c0.796-0.552,1.42-1.01,1.745-1.306c-0.464,0.315-0.936,0.617-1.406,0.924c0.503-0.333,1.006-0.669,1.507-1.015    c-0.021,0.023-0.065,0.059-0.101,0.091c10.932-7.466,20.245-17.277,27.223-28.462c7.009-11.175,11.57-23.781,13.46-36.601    C184.369,111.937,183.427,116.043,182.236,119.646z M175.582,54.294c-0.294-0.688-0.59-1.374-0.923-2.034    C174.997,52.928,175.29,53.611,175.582,54.294z M167.134,41.596c3.025,4.566,5.623,9.379,7.773,14.352    c0.25,0.549,0.486,1.106,0.719,1.664c4.963,12.154,7.221,25.192,6.89,38.036c0.084-4.25-0.198-8.498-0.669-12.71    c-0.533-4.854-1.518-9.65-2.824-14.341c-2.562-9.407-6.723-18.323-12.005-26.451c0.485,0.67,0.996,1.396,1.525,2.166    c0.536,0.766,1.083,1.581,1.59,2.463l-0.638-1.109l-0.689-1.079l-1.378-2.156c-0.938-1.424-1.955-2.796-2.934-4.192    c-1.062-1.334-2.069-2.712-3.174-4.011c-0.836-0.953-1.637-1.938-2.485-2.879C161.827,34.504,164.636,37.889,167.134,41.596z     M96.886,1.152c1.467,0.078,2.937,0.221,4.407,0.331c1.204,0.101,2.402,0.279,3.588,0.413c0.356,0.015,0.732,0.039,1.204,0.092    c0.471,0.065,1.034,0.186,1.769,0.354c5.469,0.912,10.459,2.283,14.001,3.699c6.798,2.573,13.123,5.774,18.86,9.471    c5.739,3.69,10.889,7.887,15.246,12.471c2.008,2.179,1.422,1.704,0.315,0.646c0.551,0.585,1.104,1.172,1.662,1.764    c-0.736-0.734-1.459-1.478-2.206-2.196l-2.301-2.09c0.56,0.49,1.918,1.663,2.845,2.522c-7.389-7.539-16.026-13.799-25.375-18.404    c-9.356-4.603-19.431-7.446-29.502-8.581c1.618,0.18,2.412,0.22,3.168,0.24c-1.085-0.127-2.173-0.301-3.274-0.401    c-1.479-0.097-2.955-0.229-4.423-0.301c-1.469-0.035-2.927-0.069-4.36-0.103C93.954,1.078,95.417,1.118,96.886,1.152z"></path>  <path d="M115.942,184.69c0.143-0.042,0.283-0.083,0.426-0.125c-0.446,0.12-0.885,0.252-1.334,0.366    C115.338,184.855,115.643,184.781,115.942,184.69z"></path>  <path d="M160.424,146.151c4.235-5.587,7.977-12.263,10.366-18.014l-0.029,0.006c-6.061,14.322-15.892,26.66-28.16,35.744    c2.378-1.65,4.53-3.248,6.418-4.703C151.717,156.364,156.232,151.778,160.424,146.151z"></path>  <path d="M35.35,162.846c7.172,6.412,15.821,11.992,25.448,15.751c3.754,1.413,7.585,2.651,11.503,3.523    c1.944,0.502,3.929,0.812,5.899,1.181c0.987,0.175,1.987,0.272,2.979,0.412c0.994,0.129,1.986,0.275,2.987,0.333    c-4.519-0.501-9.005-1.251-13.372-2.44c-4.364-1.185-8.642-2.65-12.769-4.449c-4.113-1.831-8.087-3.942-11.894-6.314    C42.345,168.435,38.755,165.746,35.35,162.846z"></path>  <path d="M123.877,174.277l-2.219,0.871l-2.266,0.756c-1.5,0.54-3.047,0.944-4.59,1.373c1.551-0.39,3.111-0.754,4.624-1.254    c0.763-0.233,1.524-0.466,2.283-0.698c0.746-0.272,1.489-0.544,2.23-0.815C123.853,174.466,123.345,174.565,123.877,174.277z"></path>  <path d="M97.683,179.965c-1.16,0.099-2.326,0.09-3.494,0.102c-1.168,0.014-2.338,0.039-3.509-0.038    c0.565,0.053,1.093,0.103,1.576,0.148c0.482,0.031,0.916,0.068,1.295,0.113C94.932,180.172,96.303,180.139,97.683,179.965z"></path>  <path d="M51.441,169.209c1.341,0.787,2.765,1.48,4.178,2.244c0.354,0.194,0.996,0.415,1.801,0.709    c-1.721-0.739-3.37-1.655-5.046-2.505c-0.83-0.441-1.629-0.935-2.443-1.395c-0.812-0.464-1.621-0.927-2.389-1.445    c0.31,0.208,0.623,0.417,0.937,0.626c0.324,0.194,0.65,0.388,0.977,0.584C50.111,168.417,50.774,168.812,51.441,169.209z"></path></g></g><g id="SvgjsG1014" featurekey="symbol1" fill="#b97070" transform="matrix(0.7316460704876314,0,0,0.7316460704876314,51.68303693357185,51.756201645283426)"><path d="M49.8,43.9c-0.9-4.4-3.5-12.1-10.3-14.3c0.2-0.7,0.3-1.6,0.3-2.6v-1.4l-17.8,0c-0.3,0-8.1-0.3-12.7,4.1  c-2.3,2.2-3.4,5-3.4,8.6L5.9,43c-2.4,0.7-4.1,2.9-4.1,5.4c0,2.4,1.6,4.6,4,5.4v0.6c0,7.2,4,13.5,10,16.9L15.6,76  C9.3,76.4,6,79,4.9,80.1c-2,1.9-3,4.5-3,7.5v10.7h2.7V87.6c0-2.3,0.7-4.1,2.2-5.6c3.3-3.2,9.2-3.3,10.1-3.3c0,0,0,0,0.1,0  c0.3,0,0.7-0.1,0.9-0.4c0.3-0.2,0.4-0.6,0.4-1l0.2-4.8c2.4,1,5.1,1.5,7.9,1.5c2.8,0,5.5-0.5,7.9-1.5l0.2,4.8c0,0.7,0.6,1.3,1.4,1.3  c0,0,0,0,0,0c0.6,0,6.2,0.1,9.4,3.2c1.5,1.4,2.2,3.4,2.2,5.8v10.7h2.7V87.6c0-3.1-1-5.7-3.1-7.7c-3.1-3-7.6-3.7-10-3.9l-0.2-4.8  c5.9-3.5,9.9-9.7,9.9-16.9c0-1.4,0-4.9,0-6.9h3.6L49.8,43.9z M44.1,54.4c0,9.4-8,17-17.8,17c-9.8,0-17.8-7.6-17.8-17v-2.9l-1.3-0.1  c-1.5-0.1-2.7-1.4-2.7-2.9c0-1.6,1.2-2.9,2.8-2.9l1.2-0.1l0-7.1c0-2.7,0.9-5,2.6-6.6c3.3-3.1,8.8-3.4,10.4-3.4c0.2,0,15.5,0,15.5,0  c-0.1,0.8-0.3,1-0.3,1l-3,2l3.5,0.5c6.6,1,9.1,8.6,10,12.9l-3,0C44.1,44.8,44.1,54.3,44.1,54.4z"></path><path d="M26,62.2c-2.8,0-5.3-1.6-5.3-3.5c0-0.6-0.5-1.1-1.1-1.1c-0.6,0-1.1,0.5-1.1,1.1c0,3.1,3.4,5.7,7.5,5.7  c0.6,0,1.1-0.5,1.1-1.1C27.1,62.7,26.6,62.2,26,62.2z"></path><path d="M20.8,50.8c0,0.6,0.5,1.1,1.1,1.1c0.6,0,1.1-0.5,1.1-1.1c0-1.9-1.9-3.4-4.3-3.4s-4.3,1.5-4.3,3.4c0,0.6,0.5,1.1,1.1,1.1  s1.1-0.5,1.1-1.1c0-0.6,0.9-1.2,2.1-1.2C20,49.6,20.8,50.2,20.8,50.8z"></path><path d="M32.4,47.4c-2.4,0-4.3,1.5-4.3,3.4c0,0.6,0.5,1.1,1.1,1.1c0.6,0,1.1-0.5,1.1-1.1c0-0.6,0.9-1.2,2.1-1.2  c1.2,0,2.1,0.6,2.1,1.2c0,0.6,0.5,1.1,1.1,1.1c0.6,0,1.1-0.5,1.1-1.1C36.7,48.9,34.8,47.4,32.4,47.4z"></path><path d="M94.2,37.7c3.2-5.5,4.1-11.9,2.5-18.1C95.1,13.4,91.1,8.2,85.6,5c-3.7-2.2-7.8-3.3-12-3.3c-2,0-4.1,0.3-6.1,0.8  C61.4,4.2,56.2,8.1,53,13.6c-3.2,5.5-4.1,11.9-2.5,18.1c1.4,5.3,4.6,9.9,9,13.2l0.2,0.1l-7.1,10.8l27.1-7.1  C85.9,47.1,91,43.2,94.2,37.7z M79,46.2l-20.5,5.4l4.8-7.3l-1.1-0.7c-4.5-2.9-7.8-7.3-9.1-12.5c-1.4-5.5-0.7-11.2,2.2-16.1  c2.9-4.9,7.5-8.4,13-9.8c5.4-1.4,11.3-0.6,16.1,2.2c4.9,2.9,8.4,7.5,9.9,13c1.4,5.5,0.7,11.2-2.2,16.1C89.1,41.2,84.5,44.7,79,46.2z  "></path><path d="M71.7,17.7h-8.7v8h8.7V17.7z M70.3,24.3h-5.8v-5.1h5.8V24.3z"></path><rect x="74.1" y="18" width="5.3" height="1.4"></rect><rect x="74.1" y="21" width="5.6" height="1.4"></rect><rect x="74.1" y="24.3" width="5.6" height="1.4"></rect><rect x="63.1" y="27.7" width="16.7" height="1.4"></rect><rect x="63.1" y="30.8" width="16.7" height="1.4"></rect><path d="M84.6,16.4h-0.5c-0.4-1.6-1.8-2.9-3.6-2.9H62.6c-2,0-3.6,1.6-3.6,3.6v15.7c0,2,1.6,3.6,3.6,3.6l23.6,0  l1.2,0c0.2,0,0.4-0.1,0.6-0.2c0.2-0.1,0.2-0.3,0.2-0.6V20C88.3,18,86.6,16.4,84.6,16.4z M62.6,34.9c-1.1,0-2.1-0.9-2.1-2.1V17.2  c0-1.1,0.9-2.1,2.1-2.1h17.9c1.1,0,2.1,0.9,2.1,2.1v15.6c0,0.8,0.2,1.5,0.7,2.1L62.6,34.9z M86.7,34.9l-0.4,0c0,0,0,0,0,0  c-1.1,0-2.1-0.9-2.1-2.1v-1.1h1.4v-1.4h-1.4v-2h1.4v-1.4h-1.4V25h1.4v-1.4h-1.4v-1.8h1.4v-1.4h-1.4v-2.3h0.4c1.1,0,2.1,0.9,2.1,2.1  V34.9z"></path></g><g id="SvgjsG1015" featurekey="text1" fill="#4464d2" transform="matrix(3.999999745686865,0,0,3.999999745686865,168.52000086975093,39.000005086262696)"><path d="M15.36 5 c0.38 0 0.7 0.32 0.7 0.7 l0 13.4 c0 0.38 -0.32 0.7 -0.7 0.7 l-1.52 0 c-0.4 0 -0.7 -0.32 -0.7 -0.7 l0 -9.04 l-3.7 4.76 c-0.14 0.16 -0.34 0.26 -0.56 0.26 l0 0 c-0.22 0 -0.44 -0.1 -0.56 -0.28 l-6.56 -8.68 c-0.16 -0.2 -0.18 -0.5 -0.06 -0.72 c0.12 -0.24 0.36 -0.4 0.62 -0.4 l1.76 0 c0.22 0 0.42 0.1 0.56 0.28 l4.24 5.6 l4.14 -5.6 c0.14 -0.18 0.34 -0.28 0.58 -0.28 l1.76 0 z M3.84 14.7 c0.38 0 0.7 0.3 0.7 0.7 l0 3.7 c0 0.38 -0.32 0.7 -0.7 0.7 l-1.52 0 c-0.38 0 -0.7 -0.32 -0.7 -0.7 l0 -3.7 c0 -0.4 0.32 -0.7 0.7 -0.7 l1.52 0 z M21.5 5 c0.38 0 0.7 0.32 0.7 0.7 l0 13.28 c0 0.38 -0.32 0.7 -0.7 0.7 l-1.5 0 c-0.38 0 -0.7 -0.32 -0.7 -0.7 l0 -13.28 c0 -0.38 0.32 -0.7 0.7 -0.7 l1.5 0 z M37.6 5 c0.38 0 0.7 0.32 0.7 0.7 l0 13.28 c0 0.38 -0.32 0.7 -0.7 0.7 l-1.76 0 c-0.22 0 -0.42 -0.1 -0.56 -0.28 l-6.94 -9.5 l0 9.08 c0 0.38 -0.32 0.7 -0.7 0.7 l-1.5 0 c-0.38 0 -0.7 -0.32 -0.7 -0.7 l0 -13.28 c0 -0.38 0.32 -0.7 0.7 -0.7 l1.74 0 c0.22 0 0.44 0.1 0.56 0.28 l6.96 9.46 l0 -9.04 c0 -0.38 0.3 -0.7 0.68 -0.7 l1.52 0 z M43.74 5 c0.38 0 0.7 0.32 0.7 0.7 l0 13.28 c0 0.38 -0.32 0.7 -0.7 0.7 l-1.5 0 c-0.38 0 -0.7 -0.32 -0.7 -0.7 l0 -13.28 c0 -0.38 0.32 -0.7 0.7 -0.7 l1.5 0 z  M64.14 5 c0.38 0 0.7 0.32 0.7 0.7 l0 13.4 c0 0.38 -0.32 0.7 -0.7 0.7 l-1.76 0 c-0.22 0 -0.44 -0.1 -0.58 -0.28 l-9.78 -13.4 c-0.16 -0.22 -0.18 -0.5 -0.06 -0.74 s0.36 -0.38 0.62 -0.38 l1.76 0 c0.22 0 0.44 0.1 0.56 0.28 l7.02 9.54 l0 -9.12 c0 -0.38 0.3 -0.7 0.7 -0.7 l1.52 0 z M54.10000000000001 14.7 c0.38 0 0.7 0.3 0.7 0.7 l0 3.7 c0 0.38 -0.32 0.7 -0.7 0.7 l-1.52 0 c-0.38 0 -0.7 -0.32 -0.7 -0.7 l0 -3.7 c0 -0.4 0.32 -0.7 0.7 -0.7 l1.52 0 z M78.54 5 c0.4 0 0.7 0.32 0.7 0.7 l0 1.44 c0 0.38 -0.3 0.7 -0.7 0.7 l-7.56 0 l0 3.06 l6.68 0 c0.4 0 0.7 0.32 0.7 0.7 l0 1.46 c0 0.38 -0.3 0.7 -0.7 0.7 l-6.68 0 l0 3.08 l7.56 0 c0.4 0 0.7 0.32 0.7 0.7 l0 1.44 c0 0.38 -0.3 0.7 -0.7 0.7 l-9.76 0 c-0.38 0 -0.7 -0.32 -0.7 -0.7 l0 -13.28 c0 -0.38 0.32 -0.7 0.7 -0.7 l9.76 0 z M99.80000000000001 5 c0.22 0 0.42 0.1 0.56 0.28 s0.18 0.42 0.1 0.62 l-4.12 13.3 c-0.1 0.28 -0.36 0.48 -0.68 0.48 l-1.7 0 c-0.3 0 -0.58 -0.2 -0.66 -0.48 l-2.94 -9.1 l-2.92 9.1 c-0.1 0.28 -0.36 0.48 -0.66 0.48 l-1.72 0 c-0.3 0 -0.56 -0.2 -0.66 -0.48 l-4.12 -13.3 c-0.08 -0.2 -0.04 -0.44 0.1 -0.62 c0.12 -0.18 0.34 -0.28 0.56 -0.28 l1.58 0 c0.3 0 0.58 0.2 0.66 0.5 l2.76 9.02 l2.9 -9.04 c0.1 -0.28 0.36 -0.48 0.66 -0.48 l1.74 0 c0.3 0 0.56 0.2 0.66 0.48 l2.88 9.04 l2.76 -9.02 c0.1 -0.3 0.36 -0.5 0.68 -0.5 l1.58 0 z M112.02000000000001 12.42 c1.12 0.72 1.74 1.78 1.74 3.06 c0 1.48 -0.58 2.62 -1.7 3.42 c-1.04 0.72 -2.48 1.1 -4.26 1.1 c-2.02 0 -3.6 -0.44 -4.7 -1.32 c-1.02 -0.82 -1.6 -1.98 -1.74 -3.44 c-0.02 -0.2 0.04 -0.4 0.18 -0.54 s0.32 -0.22 0.52 -0.22 l1.56 0 c0.38 0 0.68 0.28 0.7 0.64 c0.04 0.68 0.34 1.16 0.98 1.54 c0.6 0.34 1.46 0.52 2.52 0.52 c3.04 0 3.04 -1.2 3.04 -1.64 c0 -0.32 -0.12 -0.52 -0.38 -0.7 c-0.38 -0.26 -0.88 -0.48 -1.48 -0.66 c-0.66 -0.2 -1.38 -0.38 -2.14 -0.56 c-0.82 -0.18 -1.6 -0.42 -2.3 -0.7 c-0.76 -0.32 -1.42 -0.72 -1.92 -1.24 c-0.58 -0.58 -0.88 -1.36 -0.88 -2.3 c0 -1.3 0.5 -2.38 1.5 -3.2 c0.96 -0.78 2.36 -1.18 4.2 -1.18 s3.3 0.44 4.36 1.32 c0.98 0.8 1.52 1.86 1.58 3.14 c0.02 0.18 -0.06 0.38 -0.18 0.52 c-0.14 0.12 -0.32 0.2 -0.5 0.2 l-1.56 0 c-0.34 0 -0.64 -0.26 -0.68 -0.6 c-0.06 -0.52 -0.3 -1.24 -1.62 -1.6 c-0.4 -0.12 -0.92 -0.18 -1.52 -0.18 s-1.1 0.06 -1.48 0.2 c-0.38 0.12 -0.66 0.26 -0.84 0.42 c-0.16 0.14 -0.26 0.28 -0.3 0.42 c-0.06 0.2 -0.1 0.42 -0.1 0.64 c0 0.04 0 0.16 0.18 0.34 c0.2 0.18 0.46 0.36 0.8 0.48 c0.4 0.18 0.86 0.32 1.38 0.44 c0.54 0.14 1.1 0.28 1.68 0.42 s1.16 0.3 1.72 0.48 c0.6 0.2 1.16 0.46 1.64 0.78 z "></path></g></svg>
